# xmcd CD database file
#
# Track frame offsets:
#	150
#	18603
#	37657
#	52766
#	72659
#	96076
#	112783
#	138268
#	161085
#	182734
#
# Disc length: 2709 seconds
#
# Revision: 0
# Processed by: cddbd v1.5.1PL0 Copyright (c) Steve Scherf et al.
# Submitted via: CDex 1.51
#
DISCID=7a0a930a
DTITLE=Duke Tomatoe - Big Bang
DYEAR=2002
DGENRE=Blues
TTITLE0=Lookin' For A Fox
TTITLE1=Song About Nothin'
TTITLE2=Walk Right Up To Me Baby
TTITLE3=Please Call Again
TTITLE4=Sometimes Baby
TTITLE5=Raisin' Jac
TTITLE6=When It All Comes Down
TTITLE7=A Man Needs His Lovin'
TTITLE8=Bluebird
TTITLE9=The Hunter
EXTD=YEAR: 2002
EXTT0=
EXTT1=
EXTT2=
EXTT3=
EXTT4=
EXTT5=
EXTT6=
EXTT7=
EXTT8=
EXTT9=
PLAYORDER=
